<?xml version="1.0" encoding="utf-8"?>

<!DOCTYPE svg PUBLIC "-//W3C//DTD SVG 1.1//EN" "http://www.w3.org/Graphics/SVG/1.1/DTD/svg11.dtd">
<!-- Uploaded to: SVG Repo, www.svgrepo.com, Generator: SVG Repo Mixer Tools -->
<svg height="800px" width="800px" version="1.1" id="_x32_" xmlns="http://www.w3.org/2000/svg" xmlns:xlink="http://www.w3.org/1999/xlink" 
	 viewBox="0 0 512 512"  xml:space="preserve">
<style type="text/css">
	.st0{fill:#000000;}
</style>
<g>
	<path class="st0" d="M199.259,2.124c-10.736,0-17.97,8.514-17.97,19.002v90.51c0,10.292-5.288,15.216-13.403,15.216
		c-7.412,0-11.785-6.115-11.785-13.376l-0.408-94.021C155.693,7.59,145.348,0,135.731,0c-9.607,0-19.961,7.59-19.961,19.455v94.021
		c0,7.261-4.782,13.376-12.194,13.376c-8.105,0-13.402-4.924-13.402-15.216v-90.51c0-10.488-7.226-19.002-17.953-19.002
		c-10.744,0.018-16.46,9.261-17.633,18.326c-1.155,9.074-7.119,73.873-7.768,115.288c-0.666,41.425,28.414,65.652,44.98,73.349
		c11.332,5.261,19.526,16.575,19.526,30.182v34.288h48.81v-34.288c0-13.607,8.194-24.921,19.526-30.182
		c16.575-7.696,45.655-31.924,44.997-73.349c-0.657-41.415-6.612-106.214-7.785-115.288C215.701,11.385,209.995,2.142,199.259,2.124
		z"/>
	<path class="st0" d="M332.341,209.087c13.384,11.838,19.526,16.575,19.526,30.182v34.288h48.818v-34.288
		c0-13.607,6.132-18.344,19.518-30.182c13.687-12.096,44.988-45.726,44.988-87.151c0-72.317-45.771-118.354-88.919-118.354
		c-43.149,0-88.92,46.037-88.92,118.354C287.352,163.361,318.653,196.991,332.341,209.087z"/>
	<path class="st0" d="M177.831,287.44H93.649c-10.682,0-19.339,8.657-19.339,19.339s8.657,19.339,19.339,19.339h84.182
		c10.683,0,19.339-8.657,19.339-19.339S188.514,287.44,177.831,287.44z"/>
	<path class="st0" d="M94.786,471.046c0,22.618,18.336,40.954,40.954,40.954c22.619,0,40.954-18.335,40.954-40.954V339.769H94.786
		V471.046z"/>
	<path class="st0" d="M418.363,287.44H334.18c-10.683,0-19.339,8.657-19.339,19.339s8.656,19.339,19.339,19.339h84.182
		c10.682,0,19.339-8.657,19.339-19.339S429.045,287.44,418.363,287.44z"/>
	<path class="st0" d="M335.318,471.046c0,22.618,18.335,40.954,40.954,40.954c22.619,0,40.954-18.335,40.954-40.954V339.769h-81.907
		V471.046z"/>
</g>
</svg>